<svg width="25" height="24" viewBox="0 0 25 24" fill="none" xmlns="http://www.w3.org/2000/svg">
<path d="M8.66663 11V16M8.66663 8V8.01M12.6666 16V11M16.6666 16V13C16.6666 12.4696 16.4559 11.9609 16.0808 11.5858C15.7058 11.2107 15.1971 11 14.6666 11C14.1362 11 13.6275 11.2107 13.2524 11.5858C12.8773 11.9609 12.6666 12.4696 12.6666 13M4.66663 6C4.66663 5.46957 4.87734 4.96086 5.25241 4.58579C5.62749 4.21071 6.13619 4 6.66663 4H18.6666C19.1971 4 19.7058 4.21071 20.0808 4.58579C20.4559 4.96086 20.6666 5.46957 20.6666 6V18C20.6666 18.5304 20.4559 19.0391 20.0808 19.4142C19.7058 19.7893 19.1971 20 18.6666 20H6.66663C6.13619 20 5.62749 19.7893 5.25241 19.4142C4.87734 19.0391 4.66663 18.5304 4.66663 18V6Z" stroke="#484A47" stroke-width="2" stroke-linecap="round" stroke-linejoin="round"/>
</svg>
