<svg width="25" height="24" viewBox="0 0 25 24" fill="none" xmlns="http://www.w3.org/2000/svg">
<path d="M17.1666 7.5V7.51M4.66663 8C4.66663 6.93913 5.08805 5.92172 5.8382 5.17157C6.58834 4.42143 7.60576 4 8.66663 4H16.6666C17.7275 4 18.7449 4.42143 19.4951 5.17157C20.2452 5.92172 20.6666 6.93913 20.6666 8V16C20.6666 17.0609 20.2452 18.0783 19.4951 18.8284C18.7449 19.5786 17.7275 20 16.6666 20H8.66663C7.60576 20 6.58834 19.5786 5.8382 18.8284C5.08805 18.0783 4.66663 17.0609 4.66663 16V8ZM9.66663 12C9.66663 12.7956 9.9827 13.5587 10.5453 14.1213C11.1079 14.6839 11.871 15 12.6666 15C13.4623 15 14.2253 14.6839 14.7879 14.1213C15.3506 13.5587 15.6666 12.7956 15.6666 12C15.6666 11.2044 15.3506 10.4413 14.7879 9.87868C14.2253 9.31607 13.4623 9 12.6666 9C11.871 9 11.1079 9.31607 10.5453 9.87868C9.9827 10.4413 9.66663 11.2044 9.66663 12Z" stroke="#484A47" stroke-width="2" stroke-linecap="round" stroke-linejoin="round"/>
</svg>
