<svg width="25" height="24" viewBox="0 0 25 24" fill="none" xmlns="http://www.w3.org/2000/svg">
<path d="M22.6666 4.01001C21.6666 4.50001 20.6866 4.69901 19.6666 5.00001C18.5456 3.73501 16.8836 3.66501 15.2866 4.26301C13.6896 4.86101 12.6436 6.32301 12.6666 8.00001V9.00001C9.42163 9.08301 6.53163 7.60501 4.66663 5.00001C4.66663 5.00001 0.484626 12.433 8.66663 16C6.79463 17.247 4.92763 18.088 2.66663 18C5.97463 19.803 9.57963 20.423 12.7006 19.517C16.2806 18.477 19.2226 15.794 20.3516 11.775C20.6884 10.5527 20.8556 9.28987 20.8486 8.02201C20.8486 7.77301 22.3586 5.25001 22.6666 4.00901V4.01001Z" stroke="#484A47" stroke-width="2" stroke-linecap="round" stroke-linejoin="round"/>
</svg>
