<svg width="36" height="24" viewBox="0 0 36 24" fill="none" xmlns="http://www.w3.org/2000/svg">
<rect x="0.833313" y="0.5" width="34" height="23" rx="3.5" fill="white" stroke="#D9D9D9"/>
<path fill-rule="evenodd" clip-rule="evenodd" d="M10.2333 15.241H8.6777C8.57125 15.241 8.48072 15.3183 8.46412 15.4234L7.83494 19.4125C7.82244 19.4912 7.8834 19.5621 7.96324 19.5621H8.70591C8.81236 19.5621 8.90289 19.4848 8.9195 19.3795L9.08919 18.3036C9.10556 18.1982 9.19632 18.121 9.30255 18.121H9.795C10.8197 18.121 11.4111 17.6251 11.5656 16.6424C11.6352 16.2125 11.5686 15.8748 11.3672 15.6381C11.1462 15.3784 10.754 15.241 10.2333 15.241ZM10.4128 16.6979C10.3277 17.2561 9.90123 17.2561 9.48884 17.2561H9.2541L9.41878 16.2136C9.42856 16.1507 9.48315 16.1042 9.54684 16.1042H9.65443C9.93535 16.1042 10.2004 16.1042 10.3373 16.2643C10.4189 16.3599 10.444 16.5018 10.4128 16.6979ZM14.8834 16.68H14.1385C14.075 16.68 14.0202 16.7264 14.0104 16.7895L13.9774 16.9978L13.9253 16.9223C13.7641 16.6882 13.4045 16.61 13.0455 16.61C12.2223 16.61 11.5192 17.2335 11.3823 18.1081C11.3111 18.5443 11.4123 18.9615 11.6597 19.2524C11.8868 19.5199 12.2116 19.6314 12.5981 19.6314C13.2613 19.6314 13.6292 19.2049 13.6292 19.2049L13.596 19.4119C13.5834 19.4911 13.6444 19.562 13.7237 19.562H14.3948C14.5015 19.562 14.5915 19.4847 14.6084 19.3794L15.011 16.8297C15.0238 16.7513 14.963 16.68 14.8834 16.68ZM13.845 18.1299C13.7731 18.5555 13.4353 18.8412 13.0046 18.8412C12.7883 18.8412 12.6153 18.7718 12.5044 18.6403C12.3943 18.5098 12.3524 18.3239 12.3874 18.117C12.4546 17.695 12.7981 17.4 13.2223 17.4C13.4337 17.4 13.6057 17.4702 13.719 17.6029C13.8325 17.7369 13.8775 17.9238 13.845 18.1299ZM18.1023 16.6799H18.8509C18.9558 16.6799 19.0169 16.7975 18.9573 16.8835L16.4675 20.4774C16.4272 20.5356 16.3608 20.5702 16.2899 20.5702H15.5422C15.4369 20.5702 15.3754 20.4517 15.4364 20.3655L16.2116 19.2712L15.3871 16.8514C15.3586 16.7673 15.4207 16.6799 15.5102 16.6799H16.2458C16.3413 16.6799 16.4257 16.7427 16.4532 16.8341L16.8908 18.2956L17.9233 16.7748C17.9638 16.7154 18.0309 16.6799 18.1023 16.6799Z" fill="#253B80"/>
<path fill-rule="evenodd" clip-rule="evenodd" d="M26.2188 19.4124L26.8572 15.3504C26.867 15.2874 26.9216 15.2409 26.9851 15.2407H27.7038C27.7832 15.2407 27.8441 15.3119 27.8316 15.3906L27.202 19.3795C27.1856 19.4847 27.0951 19.5621 26.9885 19.5621H26.3466C26.2672 19.5621 26.2062 19.4912 26.2188 19.4124ZM21.3294 15.2409H19.7735C19.6673 15.2409 19.5767 15.3183 19.5601 15.4234L18.931 19.4124C18.9184 19.4912 18.9794 19.5621 19.0589 19.5621H19.8572C19.9314 19.5621 19.9949 19.508 20.0064 19.4343L20.185 18.3036C20.2014 18.1982 20.2921 18.1209 20.3983 18.1209H20.8905C21.9155 18.1209 22.5068 17.625 22.6614 16.6424C22.7312 16.2125 22.6641 15.8747 22.4629 15.6381C22.2419 15.3784 21.85 15.2409 21.3294 15.2409ZM21.5089 16.6979C21.424 17.2561 20.9975 17.2561 20.5849 17.2561H20.3503L20.5153 16.2136C20.5251 16.1506 20.5792 16.1042 20.6431 16.1042H20.7506C21.0314 16.1042 21.2966 16.1042 21.4335 16.2643C21.5152 16.3599 21.54 16.5018 21.5089 16.6979ZM25.9791 16.68H25.2347C25.1707 16.68 25.1163 16.7264 25.1068 16.7895L25.0738 16.9978L25.0215 16.9223C24.8602 16.6882 24.5009 16.61 24.1419 16.61C23.3187 16.61 22.6158 17.2335 22.4789 18.1081C22.4079 18.5443 22.5087 18.9615 22.7561 19.2524C22.9836 19.5199 23.308 19.6314 23.6944 19.6314C24.3577 19.6314 24.7255 19.2048 24.7255 19.2048L24.6923 19.4119C24.6798 19.491 24.7408 19.562 24.8207 19.562H25.4914C25.5976 19.562 25.6881 19.4846 25.7048 19.3794L26.1076 16.8297C26.1199 16.7513 26.059 16.68 25.9791 16.68ZM24.9408 18.1299C24.8693 18.5555 24.5311 18.8412 24.1002 18.8412C23.8843 18.8412 23.7111 18.7718 23.6 18.6403C23.4899 18.5098 23.4485 18.3239 23.4832 18.1169C23.5507 17.6949 23.8937 17.4 24.3179 17.4C24.5295 17.4 24.7014 17.4702 24.8148 17.6028C24.9287 17.7368 24.9737 17.9238 24.9408 18.1299Z" fill="#179BD7"/>
<path d="M15.9903 13.8138L16.1816 12.5991L15.7556 12.5892H13.7214L15.1351 3.62534C15.1394 3.59828 15.1537 3.57305 15.1745 3.55513C15.1954 3.53722 15.2221 3.52734 15.2499 3.52734H18.6799C19.8187 3.52734 20.6044 3.7643 21.0148 4.232C21.2071 4.45141 21.3296 4.68068 21.3889 4.933C21.451 5.19776 21.4521 5.51406 21.3914 5.89985L21.387 5.92801V6.1752L21.5794 6.28418C21.7414 6.37011 21.87 6.46848 21.9688 6.58111C22.1334 6.7687 22.2398 7.00712 22.2848 7.28978C22.3312 7.5805 22.3158 7.92643 22.2398 8.31807C22.152 8.76859 22.0101 9.16096 21.8186 9.48202C21.6422 9.77785 21.4177 10.0232 21.1512 10.2134C20.8967 10.394 20.5942 10.5312 20.2523 10.619C19.921 10.7052 19.5433 10.7488 19.129 10.7488H18.862C18.6712 10.7488 18.4857 10.8175 18.3402 10.9408C18.1943 11.0665 18.0977 11.2383 18.0681 11.4263L18.048 11.5357L17.7101 13.6767L17.6948 13.7553C17.6908 13.7802 17.6838 13.7927 17.6736 13.8011C17.6644 13.8087 17.6513 13.8138 17.6384 13.8138H15.9903Z" fill="#253B80"/>
<path d="M21.7615 5.95654C21.7513 6.022 21.7396 6.08891 21.7264 6.15766C21.274 8.48007 19.7266 9.28237 17.75 9.28237H16.7437C16.502 9.28237 16.2983 9.45789 16.2606 9.69631L15.7454 12.964L15.5995 13.8902C15.575 14.0468 15.6957 14.1879 15.8536 14.1879H17.6385C17.8499 14.1879 18.0294 14.0344 18.0627 13.8259L18.0802 13.7352L18.4163 11.6026L18.4379 11.4856C18.4708 11.2764 18.6507 11.1229 18.862 11.1229H19.129C20.8582 11.1229 22.212 10.4208 22.6077 8.38902C22.773 7.54028 22.6874 6.83161 22.25 6.33319C22.1177 6.18289 21.9535 6.0582 21.7615 5.95654Z" fill="#179BD7"/>
<path d="M21.2881 5.76807C21.2191 5.74796 21.1477 5.72967 21.0746 5.71322C21.0011 5.69713 20.9257 5.68287 20.8482 5.67044C20.5769 5.62656 20.2796 5.60571 19.9611 5.60571H17.2726C17.2064 5.60571 17.1436 5.6207 17.0873 5.64777C16.9633 5.70737 16.8712 5.82476 16.8489 5.96846L16.2769 9.59086L16.2604 9.69653C16.2981 9.45811 16.5018 9.28258 16.7435 9.28258H17.7498C19.7263 9.28258 21.2739 8.47993 21.7262 6.15788C21.7397 6.08914 21.7511 6.02222 21.7613 5.95677C21.6469 5.89606 21.5229 5.84413 21.3894 5.79988C21.3566 5.78891 21.3226 5.77831 21.2881 5.76807Z" fill="#222D65"/>
<path d="M16.8489 5.96842C16.8712 5.8247 16.9634 5.70732 17.0873 5.64808C17.144 5.62102 17.2066 5.60603 17.2727 5.60603H19.9612C20.2797 5.60603 20.577 5.62687 20.8483 5.67076C20.9258 5.68319 21.0012 5.69745 21.0747 5.71354C21.1478 5.73 21.2191 5.74828 21.2883 5.76839C21.3226 5.77863 21.3566 5.78923 21.3898 5.79984C21.5233 5.84408 21.6473 5.89638 21.7617 5.95672C21.8964 5.09847 21.7607 4.51412 21.2967 3.98498C20.7851 3.40247 19.8617 3.15308 18.6803 3.15308H15.2501C15.0088 3.15308 14.803 3.32859 14.7656 3.56738L13.337 12.6234C13.3088 12.8025 13.447 12.9642 13.6276 12.9642H15.7453L16.277 9.59081L16.8489 5.96842Z" fill="#253B80"/>
</svg>
