<svg width="36" height="24" viewBox="0 0 36 24" fill="none" xmlns="http://www.w3.org/2000/svg">
<rect x="0.833313" y="0.5" width="34" height="23" rx="3.5" fill="white" stroke="#D9D9D9"/>
<path d="M11.1611 5.00146H16.6768C17.4468 5.00146 17.9257 5.62904 17.7461 6.40155L15.1781 17.4269C14.9968 18.1967 14.2259 18.8249 13.4555 18.8249H7.94021C7.17134 18.8249 6.69138 18.1967 6.87099 17.4269L9.44006 6.40155C9.61967 5.62904 10.3902 5.00146 11.1611 5.00146Z" fill="#E21836"/>
<path d="M16.2175 5H22.5605C23.3304 5 22.9832 5.62758 22.8021 6.40009L20.2345 17.4255C20.0544 18.1953 20.1106 18.8234 19.3392 18.8234H12.9962C12.2247 18.8234 11.7473 18.1953 11.9285 17.4255L14.496 6.40009C14.6783 5.62758 15.4472 5 16.2175 5Z" fill="#00447C"/>
<path d="M22.3091 5H27.8248C28.5959 5 29.0748 5.62758 28.8937 6.40009L26.3261 17.4255C26.1449 18.1953 25.3734 18.8234 24.6025 18.8234H19.0893C18.3179 18.8234 17.8394 18.1953 18.0201 17.4255L20.5881 6.40009C20.7677 5.62758 21.5376 5 22.3091 5Z" fill="#007B84"/>
<path d="M12.6013 8.53338C12.0341 8.53916 11.8666 8.53338 11.8131 8.52075C11.7925 8.61849 11.4097 10.3841 11.4087 10.3856C11.3262 10.7428 11.2663 10.9974 11.0626 11.1619C10.947 11.2575 10.812 11.3036 10.6555 11.3036C10.404 11.3036 10.2574 11.1787 10.2328 10.9418L10.2281 10.8604C10.2281 10.8604 10.3047 10.382 10.3047 10.3793C10.3047 10.3793 10.7065 8.77027 10.7784 8.55758C10.7821 8.54548 10.7832 8.53916 10.7842 8.53338C10.0022 8.54024 9.86364 8.53338 9.85409 8.52075C9.84885 8.53809 9.82949 8.63784 9.82949 8.63784L9.4193 10.4513L9.38408 10.6051L9.31592 11.1082C9.31592 11.2575 9.34523 11.3793 9.40357 11.4822C9.59045 11.8088 10.1235 11.8577 10.4251 11.8577C10.8136 11.8577 11.1781 11.7752 11.4244 11.6245C11.8519 11.3719 11.9638 10.977 12.0635 10.6261L12.1098 10.4461C12.1098 10.4461 12.5236 8.77498 12.5939 8.55758C12.5966 8.54548 12.5977 8.53916 12.6013 8.53338ZM14.0093 9.88149C13.9095 9.88149 13.7272 9.90569 13.5635 9.98595C13.504 10.0165 13.4478 10.0517 13.3885 10.0868L13.4421 9.89359L13.4127 9.86106C13.0655 9.93137 12.9878 9.94078 12.667 9.98595L12.6401 10.0038C12.6029 10.3126 12.5698 10.5448 12.4317 11.1518C12.3792 11.3756 12.3246 11.6014 12.2699 11.8246L12.2846 11.853C12.6134 11.8356 12.7131 11.8356 12.9988 11.8403L13.0219 11.8152C13.0582 11.6292 13.0629 11.5857 13.1433 11.2091C13.1811 11.0306 13.2599 10.6383 13.2987 10.4986C13.3701 10.4655 13.4406 10.433 13.5078 10.433C13.6679 10.433 13.6484 10.5727 13.6422 10.6283C13.6354 10.7218 13.577 11.0269 13.5172 11.289L13.4773 11.4581C13.4495 11.583 13.4189 11.7044 13.3911 11.8282L13.4032 11.853C13.7272 11.8356 13.826 11.8356 14.1027 11.8403L14.1352 11.8152C14.1853 11.5248 14.1999 11.4471 14.2886 11.0243L14.3333 10.83C14.42 10.4498 14.4635 10.257 14.3979 10.1C14.3286 9.92398 14.1621 9.88149 14.0093 9.88149ZM15.5821 10.2796C15.4099 10.3126 15.3001 10.3347 15.1909 10.3489C15.0827 10.3663 14.9771 10.382 14.8107 10.4051L14.7975 10.4171L14.7854 10.4266C14.7681 10.5506 14.756 10.6578 14.733 10.7837C14.7135 10.914 14.6835 11.062 14.6347 11.2747C14.5969 11.4375 14.5774 11.4943 14.5559 11.5515C14.535 11.6088 14.5118 11.6645 14.4694 11.8246L14.4793 11.8394L14.4876 11.8529C14.6432 11.8456 14.745 11.8403 14.8496 11.8394C14.954 11.8356 15.0623 11.8394 15.2298 11.8403L15.2444 11.8283L15.2601 11.8152C15.2843 11.6708 15.288 11.6319 15.3028 11.5615C15.3174 11.4859 15.3427 11.3813 15.4047 11.1019C15.434 10.9707 15.4667 10.8399 15.497 10.706C15.5286 10.5726 15.5617 10.4413 15.5932 10.3101L15.5885 10.2942L15.5821 10.2796ZM15.5858 9.74284C15.4293 9.65048 15.1547 9.67979 14.9698 9.80737C14.7855 9.93241 14.7645 10.1099 14.9205 10.2034C15.0743 10.2932 15.35 10.2665 15.5332 10.1378C15.7172 10.0101 15.7401 9.83426 15.5858 9.74284ZM16.5322 11.8819C16.8488 11.8819 17.1734 11.7946 17.4177 11.5357C17.6056 11.3257 17.6918 11.0133 17.7216 10.8846C17.8188 10.4581 17.7431 10.259 17.6481 10.1378C17.5037 9.95291 17.2485 9.89362 16.9838 9.89362C16.8246 9.89362 16.4455 9.90935 16.1493 10.1824C15.9366 10.3794 15.8384 10.6466 15.7791 10.9029C15.7192 11.164 15.6504 11.634 16.0826 11.8089C16.216 11.8662 16.4083 11.8819 16.5322 11.8819ZM16.5075 10.9224C16.5805 10.5994 16.6667 10.3284 16.8866 10.3284C17.059 10.3284 17.0715 10.5301 16.9948 10.8541C16.9811 10.926 16.9182 11.1934 16.8331 11.3073C16.7737 11.3913 16.7034 11.4423 16.6257 11.4423C16.6025 11.4423 16.465 11.4423 16.4628 11.238C16.4618 11.1372 16.4823 11.0342 16.5075 10.9224ZM18.5131 11.8404L18.5378 11.8152C18.5729 11.6293 18.5787 11.5856 18.6564 11.2092C18.6953 11.0306 18.7757 10.6383 18.8134 10.4986C18.885 10.4654 18.9542 10.4329 19.0236 10.4329C19.1826 10.4329 19.1633 10.5726 19.1569 10.6282C19.1512 10.7218 19.0928 11.0268 19.0319 11.2889L18.9941 11.458C18.9652 11.583 18.9338 11.7043 18.9059 11.8283L18.918 11.853C19.2431 11.8357 19.3382 11.8357 19.6165 11.8404L19.6501 11.8152C19.6989 11.5247 19.7121 11.447 19.8035 11.0243L19.847 10.8299C19.9342 10.4497 19.9783 10.257 19.9137 10.1C19.8423 9.92402 19.6748 9.88153 19.5241 9.88153C19.4242 9.88153 19.241 9.9056 19.0782 9.98599C19.0199 10.0165 18.9616 10.0516 18.9043 10.0868L18.9542 9.89363L18.9274 9.86096C18.5803 9.93141 18.501 9.94082 18.1806 9.98599L18.156 10.0039C18.1172 10.3127 18.0856 10.5447 17.9475 11.1519C17.8949 11.3756 17.8403 11.6015 17.7858 11.8246L17.8004 11.853C18.1297 11.8357 18.2279 11.8357 18.5131 11.8404ZM20.9015 11.8529C20.922 11.7532 21.0434 11.1619 21.0444 11.1619C21.0444 11.1619 21.1478 10.7281 21.1542 10.7123C21.1542 10.7123 21.1867 10.6671 21.2192 10.6493H21.2671C21.7187 10.6493 22.2286 10.6493 22.6283 10.3552C22.9003 10.1536 23.0862 9.85579 23.1692 9.49387C23.1907 9.40514 23.2066 9.2996 23.2066 9.19406C23.2066 9.05545 23.1787 8.91832 23.0983 8.81117C22.8945 8.52602 22.4886 8.52077 22.0201 8.51862C22.0186 8.51862 21.7891 8.52077 21.7891 8.52077C21.1894 8.52817 20.9489 8.52602 20.85 8.51392C20.8417 8.55761 20.826 8.63532 20.826 8.63532C20.826 8.63532 20.6111 9.631 20.6111 9.63261C20.6111 9.63261 20.097 11.7495 20.0728 11.8493C20.5965 11.843 20.8112 11.843 20.9015 11.8529ZM21.2996 10.0842C21.2996 10.0842 21.528 9.09054 21.527 9.0943L21.5344 9.04335L21.5376 9.0045L21.6289 9.01391C21.6289 9.01391 22.1 9.05437 22.111 9.05545C22.2969 9.12738 22.3735 9.31277 22.32 9.55477C22.2712 9.77593 22.1278 9.96186 21.9435 10.0517C21.7917 10.1278 21.6057 10.1341 21.4142 10.1341H21.2902L21.2996 10.0842ZM22.7218 10.9408C22.6614 11.1981 22.5921 11.6681 23.0222 11.8356C23.1593 11.894 23.2822 11.9113 23.4071 11.905C23.539 11.8979 23.6612 11.8317 23.7744 11.7365C23.7641 11.7757 23.7539 11.8148 23.7437 11.854L23.7632 11.8792C24.0726 11.8661 24.1685 11.8661 24.5037 11.8687L24.5341 11.8456C24.583 11.5579 24.6291 11.2785 24.7563 10.7281C24.8183 10.4644 24.8801 10.2034 24.9437 9.94079L24.9338 9.91189C24.5877 9.97602 24.4952 9.98973 24.1624 10.0369L24.1371 10.0575C24.1337 10.0842 24.1302 10.1099 24.127 10.1356C24.0752 10.052 24.0002 9.98059 23.8845 9.93609C23.7364 9.87788 23.3888 9.95289 23.0899 10.225C22.8799 10.4193 22.7791 10.6855 22.7218 10.9408ZM23.4486 10.9565C23.5227 10.6394 23.6078 10.371 23.8283 10.371C23.9677 10.371 24.0411 10.4997 24.0262 10.7191C24.0143 10.7738 24.0016 10.8315 23.9864 10.8967C23.9643 10.9909 23.9404 11.0844 23.9171 11.1779C23.8935 11.2419 23.8659 11.3023 23.8357 11.3425C23.7789 11.4229 23.6439 11.4728 23.5662 11.4728C23.5442 11.4728 23.4081 11.4728 23.4034 11.2722C23.4024 11.1723 23.4229 11.0694 23.4486 10.9565ZM27.244 9.90932L27.2172 9.8788C26.8748 9.94818 26.8128 9.9592 26.4982 10.0017L26.4751 10.0248C26.474 10.0286 26.4731 10.0344 26.4715 10.0396L26.4704 10.0344C26.2362 10.5747 26.2431 10.4581 26.0524 10.8835C26.0513 10.8641 26.0513 10.852 26.0503 10.8315L26.0025 9.90932L25.9726 9.8788C25.6139 9.94818 25.6054 9.9592 25.2741 10.0017L25.2483 10.0248C25.2447 10.0358 25.2447 10.0479 25.2425 10.0611L25.2447 10.0658C25.2861 10.2774 25.2761 10.2302 25.3177 10.5642C25.3371 10.7281 25.3629 10.8929 25.3822 11.0548C25.4149 11.3257 25.4332 11.459 25.4731 11.8725C25.2494 12.2416 25.1964 12.3813 24.981 12.7053L24.9825 12.7086L24.8309 12.9484C24.8135 12.9737 24.7978 12.991 24.7758 12.9984C24.7516 13.0104 24.7201 13.0125 24.6764 13.0125H24.5924L24.4675 13.428L24.8959 13.4353C25.1475 13.4343 25.3056 13.3166 25.3907 13.1585L25.6601 12.6969H25.6558L25.6842 12.6643C25.8654 12.2742 27.244 9.90932 27.244 9.90932ZM22.7218 15.3653H22.54L23.2128 13.1402H23.436L23.5068 12.911L23.5137 13.1659C23.5053 13.3234 23.6293 13.4631 23.9549 13.44H24.3315L24.4611 13.0115H24.3194C24.2379 13.0115 24.2001 12.9909 24.2048 12.9469L24.198 12.6875H23.5006V12.6889C23.2752 12.6936 22.6019 12.7105 22.4655 12.7468C22.3006 12.7893 22.1268 12.9143 22.1268 12.9143L22.195 12.6848H21.5427L21.4068 13.1402L20.7251 15.3994H20.5928L20.463 15.8247H21.7623L21.7187 15.9666H22.3589L22.4014 15.8247H22.581L22.7218 15.3653ZM22.1887 13.5923C22.0843 13.6212 21.8899 13.7089 21.8899 13.7089L22.0628 13.1402H22.581L22.456 13.5545C22.456 13.5545 22.2959 13.5639 22.1887 13.5923ZM22.1987 14.4047C22.1987 14.4047 22.0359 14.4252 21.9287 14.4494C21.8232 14.4814 21.6253 14.5822 21.6253 14.5822L21.8038 13.9904H22.3248L22.1987 14.4047ZM21.9083 15.3706H21.3884L21.5391 14.8711H22.0574L21.9083 15.3706ZM23.1603 13.9904H23.9097L23.802 14.3391H23.0427L22.9286 14.7204H23.5931L23.09 15.4288C23.0548 15.4808 23.0232 15.4992 22.9881 15.5139C22.9528 15.5318 22.9066 15.5527 22.8531 15.5527H22.6688L22.5421 15.9703H23.0242C23.2748 15.9703 23.4229 15.8563 23.5322 15.7067L23.8771 15.2345L23.9512 15.7139C23.9669 15.8038 24.0315 15.8563 24.0752 15.8768C24.1234 15.901 24.1733 15.9425 24.2438 15.9487C24.3193 15.9519 24.3739 15.9545 24.4102 15.9545H24.6471L24.7893 15.4871H24.6959C24.6423 15.4871 24.5499 15.4781 24.5342 15.4613C24.5184 15.4409 24.5184 15.4094 24.51 15.3616L24.4348 14.8811H24.1271L24.262 14.7204H25.0199L25.1365 14.3391H24.4348L24.5441 13.9904H25.2436L25.3734 13.5603H23.2879L23.1603 13.9904ZM16.831 15.4677L17.0059 14.8858H17.7248L17.8561 14.4531H17.1366L17.2464 14.0949H17.9495L18.0798 13.6758H16.3205L16.1929 14.0949H16.5926L16.486 14.4531H16.0852L15.9524 14.8932H16.352L16.1188 15.663C16.0874 15.7649 16.1336 15.8038 16.1629 15.8511C16.1929 15.8972 16.2233 15.9278 16.2916 15.9451C16.362 15.9608 16.4103 15.9702 16.4759 15.9702H17.2863L17.4307 15.4908L17.0715 15.5402C17.0021 15.5402 16.81 15.5318 16.831 15.4677ZM16.9134 12.6822L16.7313 13.0114C16.6923 13.0834 16.6572 13.128 16.6256 13.1486C16.5978 13.1659 16.5426 13.1732 16.4628 13.1732H16.3677L16.2407 13.5944H16.5564C16.7081 13.5944 16.8247 13.5387 16.8804 13.5109C16.9402 13.4789 16.9559 13.4972 17.0022 13.4526L17.1088 13.3602H18.0945L18.2253 12.9216H17.5038L17.6297 12.6822H16.9134ZM18.3687 15.4761C18.3519 15.4519 18.364 15.4093 18.3897 15.3206L18.6591 14.4288H19.6175C19.7572 14.4268 19.858 14.4252 19.9237 14.4205C19.9941 14.4131 20.0707 14.388 20.1542 14.3428C20.2404 14.2955 20.2845 14.2456 20.3217 14.1883C20.3633 14.1312 20.43 14.0061 20.4872 13.8134L20.8259 12.6848L19.8313 12.6906C19.8313 12.6906 19.525 12.7358 19.3902 12.7857C19.2541 12.8413 19.0597 12.9968 19.0597 12.9968L19.1495 12.6874H18.5351L17.675 15.5401C17.6444 15.6509 17.624 15.7313 17.6193 15.7796C17.6177 15.8316 17.6849 15.8831 17.7285 15.922C17.78 15.9608 17.8561 15.9545 17.9291 15.9608C18.0058 15.9666 18.115 15.9702 18.2657 15.9702H18.7379L18.8828 15.4808L18.4601 15.5208C18.4149 15.5208 18.3823 15.4966 18.3687 15.4761ZM18.8329 13.8265H19.8396L19.7756 14.0271C19.7666 14.0318 19.7451 14.0172 19.6427 14.0293H18.7709L18.8329 13.8265ZM19.0346 13.1538H20.0498L19.9768 13.3954C19.9768 13.3954 19.4983 13.3907 19.4216 13.4048C19.0845 13.4631 18.8875 13.6433 18.8875 13.6433L19.0346 13.1538ZM19.7982 14.6988C19.7898 14.7288 19.7767 14.7471 19.7582 14.7608C19.7378 14.774 19.7047 14.7787 19.6554 14.7787H19.5119L19.5204 14.5344H18.9238L18.8996 15.7287C18.8986 15.8148 18.9069 15.8647 18.97 15.9047C19.0331 15.9545 19.2273 15.9609 19.4888 15.9609H19.8627L19.9977 15.5138L19.6722 15.5317L19.564 15.538C19.5492 15.5317 19.5351 15.5259 19.5193 15.5102C19.5056 15.4966 19.4825 15.505 19.4863 15.4188L19.4888 15.1127L19.8302 15.0985C20.0145 15.0985 20.0933 15.0386 20.1605 14.9814C20.2246 14.9267 20.2456 14.8638 20.2698 14.7787L20.3271 14.5077H19.858L19.7982 14.6988Z" fill="#FEFEFE"/>
</svg>
